<?xml version="1.0" standalone="no"?>
<!DOCTYPE svg PUBLIC "-//W3C//DTD SVG 20010904//EN"
 "http://www.w3.org/TR/2001/REC-SVG-20010904/DTD/svg10.dtd">
<svg version="1.0" xmlns="http://www.w3.org/2000/svg"
 width="290.000000pt" height="290.000000pt" viewBox="0 0 290.000000 290.000000"
 preserveAspectRatio="xMidYMid meet">

<g transform="translate(0.000000,290.000000) scale(0.100000,-0.100000)"
fill="#000000" stroke="none">
<path d="M1339 2748 c-423 -33 -831 -305 -1033 -689 -74 -140 -128 -313 -141
-450 -12 -125 -12 -155 -4 -266 44 -602 525 -1108 1124 -1184 119 -14 341 -7
444 15 375 82 703 330 880 667 166 315 196 678 85 1024 -116 362 -415 670
-785 808 -171 64 -370 90 -570 75z m295 -184 c308 -54 558 -208 737 -454 145
-199 212 -410 212 -665 0 -306 -113 -578 -330 -792 -180 -178 -389 -281 -643
-319 -222 -32 -445 4 -653 107 -121 60 -194 114 -303 223 -194 196 -304 442
-320 714 -25 438 189 838 564 1050 231 130 493 179 736 136z"/>
<path d="M1305 2446 c-331 -52 -629 -278 -765 -581 -175 -389 -81 -860 228
-1146 316 -292 755 -357 1138 -169 384 190 610 613 550 1031 -40 277 -176 512
-390 671 -228 170 -489 236 -761 194z m237 -421 c117 -24 206 -96 257 -205 21
-45 25 -70 25 -141 0 -73 -4 -93 -27 -142 -25 -50 -89 -117 -113 -117 -26 0
-67 -49 -73 -86 l-6 -39 -138 -3 c-76 -1 -145 2 -155 7 -14 8 -16 22 -14 83 4
76 26 142 57 168 9 8 45 29 79 45 75 37 99 71 76 112 -8 15 -28 30 -43 34 -36
10 -73 -21 -85 -71 l-8 -35 -137 -3 c-122 -2 -138 -1 -144 14 -10 26 12 138
38 191 54 111 186 192 329 202 8 0 45 -6 82 -14z m9 -788 c65 -34 102 -100
102 -178 0 -50 -4 -66 -29 -102 -56 -80 -166 -111 -254 -74 -94 41 -137 163
-91 262 49 105 169 146 272 92z"/>
</g>
</svg>
