<?xml version="1.0" standalone="no"?>
<!DOCTYPE svg PUBLIC "-//W3C//DTD SVG 20010904//EN"
 "http://www.w3.org/TR/2001/REC-SVG-20010904/DTD/svg10.dtd">
<svg version="1.0" xmlns="http://www.w3.org/2000/svg"
 width="920.000000pt" height="510.000000pt" viewBox="0 0 920.000000 510.000000"
 preserveAspectRatio="xMidYMid meet">

<g transform="translate(0.000000,510.000000) scale(0.100000,-0.100000)"
fill="#000000" stroke="none">
<path d="M4715 4974 c-506 -55 -935 -253 -1289 -594 -227 -220 -393 -468 -505
-755 l-39 -100 -404 -180 c-221 -99 -426 -190 -455 -203 l-51 -22 88 -197 c49
-109 93 -197 98 -196 5 1 67 28 137 59 70 31 130 52 134 47 4 -4 115 -251 246
-548 131 -297 240 -542 242 -544 1 -2 33 9 70 24 63 27 67 28 77 11 93 -157
231 -329 367 -461 373 -357 839 -559 1366 -591 l112 -7 -30 -36 c-45 -57 -72
-143 -71 -231 1 -172 96 -303 254 -351 134 -41 281 -8 373 85 151 151 148 397
-6 541 -28 26 -49 48 -47 49 2 1 41 13 88 25 454 121 877 416 1164 811 l47 65
-7 -86 -7 -86 114 -40 c151 -54 228 -78 233 -72 2 2 6 36 10 74 3 39 8 88 11
110 6 54 9 86 50 500 19 198 37 383 40 410 22 206 75 755 75 776 0 25 -8 29
-111 65 -62 22 -115 46 -120 54 -4 8 -23 65 -42 125 -101 322 -273 602 -522
850 -323 324 -712 522 -1175 600 -92 16 -430 28 -515 19z m488 -169 c641 -95
1208 -519 1489 -1113 54 -114 120 -302 139 -398 l13 -62 -218 -343 c-120 -189
-282 -444 -359 -566 -78 -122 -143 -220 -145 -219 -2 2 -10 30 -19 63 -27 106
-90 210 -178 298 -44 44 -106 95 -137 113 -172 102 -382 149 -618 140 -257
-11 -447 -91 -600 -254 -35 -38 -61 -62 -58 -53 13 34 209 941 205 952 -5 16
-378 96 -383 83 -6 -18 -244 -1110 -244 -1122 0 -6 46 -21 103 -33 56 -13 132
-29 168 -37 l67 -15 -24 -74 c-13 -40 -26 -103 -30 -139 l-7 -66 301 0 302 0
5 28 c23 110 51 152 130 188 60 29 190 33 248 9 94 -39 147 -125 147 -240 0
-154 -99 -263 -270 -295 -29 -5 -124 -10 -211 -10 l-159 0 0 -305 0 -305 315
0 315 0 0 120 c0 66 1 120 3 120 2 0 30 5 63 11 236 41 414 160 500 334 21 44
39 81 40 83 1 1 38 -11 83 -28 l82 -30 46 74 47 74 86 -30 c47 -17 86 -31 88
-32 7 -7 -114 -154 -203 -245 -173 -178 -316 -284 -538 -397 -382 -195 -832
-256 -1261 -174 -520 101 -972 403 -1271 850 -63 94 -64 95 -42 107 12 7 27
12 33 13 5 0 38 -42 71 -93 238 -362 601 -598 1065 -692 132 -26 361 -49 418
-42 26 3 21 4 -20 6 -125 4 -305 58 -482 146 -223 111 -428 262 -633 469 -221
222 -213 210 -486 823 -132 296 -238 547 -237 558 2 14 34 33 123 73 66 29
124 57 128 61 4 4 -27 85 -69 180 l-77 172 46 105 c190 433 540 791 972 995
196 92 428 156 650 179 120 12 355 5 488 -15z m-2259 -1503 l14 -28 -159 -69
c-87 -39 -159 -75 -159 -80 0 -6 107 -252 239 -547 l238 -537 -29 -12 c-16 -6
-30 -10 -32 -8 -1 2 -110 246 -241 542 -131 295 -241 537 -245 537 -3 0 -76
-31 -160 -69 l-155 -69 -14 26 c-8 14 -10 28 -5 30 8 2 685 307 691 311 1 0 9
-12 17 -27z m1564 -30 c10 -7 -8 -102 -80 -435 -89 -408 -94 -427 -115 -427
-13 0 -23 3 -23 7 0 8 180 833 185 851 5 14 15 15 33 4z m2497 -154 c23 -10
25 -16 20 -52 -3 -23 -35 -342 -70 -711 -36 -369 -66 -675 -68 -681 -1 -8 -10
-9 -24 -3 -20 7 -22 12 -16 77 3 43 2 72 -5 75 -5 4 -127 47 -271 97 l-261 89
-38 -59 c-20 -33 -41 -60 -47 -60 -47 1 -35 21 351 629 213 336 392 611 396
611 4 0 19 -5 33 -12z m-1645 -468 c359 -41 599 -217 687 -505 14 -47 18 -91
17 -200 0 -125 -3 -148 -27 -218 -53 -152 -140 -250 -283 -319 -76 -37 -232
-78 -296 -78 l-28 0 0 -120 0 -120 -255 0 -255 0 0 245 0 245 143 0 c209 0
300 26 394 113 132 122 145 336 28 475 -35 41 -133 89 -201 98 -64 8 -161 -9
-217 -37 -56 -29 -115 -95 -134 -150 l-18 -49 -237 0 c-270 0 -249 -9 -222 93
98 379 443 580 904 527z"/>
<path d="M5685 4503 c143 -73 298 -195 456 -359 216 -225 352 -453 445 -748
l35 -111 -6 106 c-10 182 -66 384 -147 529 -113 203 -316 389 -554 508 -69 35
-273 112 -292 112 -4 0 25 -17 63 -37z"/>
<path d="M5463 4431 c-106 -15 -195 -30 -198 -33 -4 -3 -28 -140 -56 -304 -27
-165 -52 -310 -55 -323 -4 -19 -36 43 -140 270 -75 162 -139 297 -142 301 -9
9 -402 -44 -402 -54 0 -9 624 -1363 639 -1387 7 -11 31 -11 150 5 77 9 145 20
150 23 5 3 63 339 130 746 67 407 124 750 126 763 3 12 2 21 -2 21 -5 -1 -95
-14 -200 -28z m-108 -762 c-87 -519 -101 -588 -126 -589 -3 0 -115 237 -249
528 -134 290 -245 530 -247 533 -1 4 8 9 21 11 22 4 36 -24 247 -479 192 -417
225 -481 230 -456 4 15 44 252 90 525 77 465 83 497 103 500 12 2 22 3 24 2 1
-1 -40 -259 -93 -575z"/>
<path d="M3390 4083 c0 -4 -22 -219 -49 -478 -27 -258 -47 -471 -46 -472 4 -6
298 -33 303 -29 3 3 10 56 16 118 l11 113 29 -60 c15 -33 41 -90 57 -126 l30
-66 176 -17 c96 -9 177 -15 179 -13 2 2 -28 75 -66 163 l-71 159 54 56 c70 72
98 142 98 249 0 170 -92 291 -266 348 -33 11 -130 27 -215 36 -85 9 -174 19
-197 22 -24 3 -43 2 -43 -3z m371 -316 c30 -20 34 -28 37 -75 3 -44 -1 -56
-22 -77 -20 -20 -35 -25 -76 -25 -51 0 -52 0 -46 28 3 15 8 60 11 100 7 70 8
72 35 72 15 0 42 -10 61 -23z"/>
<path d="M4311 3898 c-110 -54 -137 -212 -53 -301 35 -38 67 -54 123 -62 74
-11 157 35 196 109 33 63 11 179 -44 228 -55 50 -151 61 -222 26z"/>
<path d="M5819 3644 c0 -66 -6 -326 -13 -579 -6 -253 -9 -463 -6 -466 3 -4 91
-9 197 -12 l192 -5 5 42 c8 65 29 1117 22 1123 -3 3 -93 8 -201 11 l-195 5 -1
-119z"/>
<path d="M3526 2430 c23 -265 180 -493 430 -625 38 -20 60 -30 49 -21 -139
109 -203 177 -301 312 -79 111 -135 225 -170 349 l-14 50 6 -65z"/>
<path d="M6662 2562 c-167 -262 -304 -481 -304 -487 0 -5 112 -48 249 -96
l248 -86 8 36 c10 48 109 1079 105 1097 -2 7 -140 -201 -306 -464z m78 -307
c-8 -85 -17 -155 -20 -155 -3 0 -36 10 -73 23 l-66 22 41 65 c96 151 128 200
130 200 2 0 -4 -70 -12 -155z"/>
</g>
</svg>
